# xmcd CD database file
#
# Track frame offsets:
#	150
#	19731
#	45260
#	66002
#	67483
#	88561
#	117971
#	144511
#	145822
#	172624
#	184250
#	203023
#
# Disc length: 2852 seconds
#
# Revision: 0
# Processed by: cddbd v1.5.2PL0 Copyright (c) Steve Scherf et al.
# Submitted via: CDex 1.51
#
DISCID=a30b220c
DTITLE=Andi Weiss - Thank You Mr. Blakey
DYEAR=2004
DGENRE=Jazz
TTITLE0=Infra Rae
TTITLE1=So Tired
TTITLE2=B For B. B.
TTITLE3=Whiskey Time
TTITLE4=Calling Miss Khadija
TTITLE5=When Love Is New
TTITLE6=Chef Boogie
TTITLE7=Whiskey Time (Alt. Take)
TTITLE8=Soft Winds
TTITLE9=Rev. Moses
TTITLE10=Pinch Hit
TTITLE11=The Theme
EXTD=YEAR: 2004
EXTT0=
EXTT1=
EXTT2=
EXTT3=
EXTT4=
EXTT5=
EXTT6=
EXTT7=
EXTT8=
EXTT9=
EXTT10=
EXTT11=
PLAYORDER=
